<?xml version="1.0" encoding="UTF-8" standalone="no"?>
<!DOCTYPE svg PUBLIC "-//W3C//DTD SVG 1.1//EN" "http://www.w3.org/Graphics/SVG/1.1/DTD/svg11.dtd">
<svg width="100%" height="100%" viewBox="0 0 512 512" version="1.1" xmlns="http://www.w3.org/2000/svg" xmlns:xlink="http://www.w3.org/1999/xlink" xml:space="preserve" xmlns:serif="http://www.serif.com/" style="fill-rule:evenodd;clip-rule:evenodd;stroke-linejoin:round;stroke-miterlimit:2;">
    <g transform="matrix(2.66667,0,0,2.66667,6.63173e-14,2.84217e-14)">
        <g transform="matrix(0.375,0,0,0.411765,-2.66454e-14,-9.41176)">
            <g transform="matrix(1,0,0,0.960585,4.73695e-15,19.2798)">
                <path d="M0,132.571L0,489.143L512,489.143L512,132.571L0,132.571ZM493.714,470.857L18.286,470.857L18.286,150.857L493.714,150.857L493.714,470.857Z" style="fill:white;fill-rule:nonzero;"/>
            </g>
        </g>
        <g transform="matrix(0.375,0,0,0.411765,-2.66454e-14,-9.41176)">
            <g transform="matrix(1.01363,0,0,0.923131,-3.4904,83.2096)">
                <path d="M355.148,234.386L275.83,234.386L275.83,155.068C275.83,144.122 266.966,135.238 256,135.238C245.034,135.238 236.17,144.122 236.17,155.068L236.17,234.386L156.852,234.386C145.886,234.386 137.022,243.27 137.022,254.216C137.022,265.162 145.886,274.046 156.852,274.046L236.17,274.046L236.17,353.364C236.17,364.31 245.034,373.194 256,373.194C266.966,373.194 275.83,364.31 275.83,353.364L275.83,274.046L355.148,274.046C366.114,274.046 374.978,265.162 374.978,254.216C374.978,243.27 366.114,234.386 355.148,234.386Z" style="fill:white;fill-rule:nonzero;"/>
            </g>
        </g>
        <g transform="matrix(0.375,0,0,0.411765,-2.66454e-14,-9.41176)">
            <g transform="matrix(1,0,0,1,3.15544e-30,4.85714)">
                <path d="M27.429,114.286L484.571,114.286C489.618,114.286 493.714,110.19 493.714,105.143C493.714,100.096 489.618,96 484.571,96L27.429,96C22.382,96 18.286,100.096 18.286,105.143C18.286,110.19 22.382,114.286 27.429,114.286Z" style="fill:white;fill-rule:nonzero;"/>
            </g>
        </g>
        <g transform="matrix(0.375,0,0,0.411765,-2.66454e-14,-9.41176)">
            <g transform="matrix(1,0,0,1,3.15544e-30,2.42857)">
                <path d="M54.857,77.714L457.143,77.714C462.19,77.714 466.286,73.618 466.286,68.571C466.286,63.525 462.19,59.429 457.143,59.429L54.857,59.429C49.81,59.429 45.714,63.525 45.714,68.571C45.714,73.618 49.81,77.714 54.857,77.714Z" style="fill:white;fill-rule:nonzero;"/>
            </g>
        </g>
        <g transform="matrix(0.375,0,0,0.411765,-2.66454e-14,-9.41176)">
            <path d="M82.286,41.143L429.714,41.143C434.761,41.143 438.857,37.047 438.857,32C438.857,26.953 434.761,22.857 429.714,22.857L82.286,22.857C77.239,22.857 73.143,26.953 73.143,32C73.143,37.047 77.239,41.143 82.286,41.143Z" style="fill:white;fill-rule:nonzero;"/>
        </g>
    </g>
</svg>
